<?xml version="1.0" encoding="UTF-8" standalone="no"?>
<svg
   xmlns:dc="http://purl.org/dc/elements/1.1/"
   xmlns:cc="http://creativecommons.org/ns#"
   xmlns:rdf="http://www.w3.org/1999/02/22-rdf-syntax-ns#"
   xmlns:svg="http://www.w3.org/2000/svg"
   xmlns="http://www.w3.org/2000/svg"
   xmlns:sodipodi="http://sodipodi.sourceforge.net/DTD/sodipodi-0.dtd"
   xmlns:inkscape="http://www.inkscape.org/namespaces/inkscape"
   sodipodi:docname="icon.svg"
   inkscape:version="1.0.2 (e86c870879, 2021-01-15)"
   inkscape:export-ydpi="862.50812"
   inkscape:export-xdpi="862.50812"
   inkscape:export-filename="/home/kzkedzierska/github/kasia_codes/assets/media/icon.png"
   id="svg8"
   version="1.1"
   viewBox="0 0 16.725318 26.207073"
   height="26.207073mm"
   width="16.725319mm">
  <defs
     id="defs2">
    <clipPath
       id="clipPath6310"
       clipPathUnits="userSpaceOnUse">
      <rect
         y="141.66647"
         x="103.63009"
         height="15.316323"
         width="11.353425"
         id="rect6312"
         style="fill:#008000;stroke:#ffd4c3;stroke-width:0.765;stroke-linecap:round;stroke-miterlimit:4;stroke-dasharray:none" />
    </clipPath>
    <clipPath
       id="clipPath6415"
       clipPathUnits="userSpaceOnUse">
      <rect
         y="142.47867"
         x="104.66325"
         height="14.089664"
         width="8.7530327"
         id="rect6417"
         style="fill:#008000;stroke:none;stroke-width:0.44438;stroke-linecap:round;stroke-miterlimit:4;stroke-dasharray:none;stroke-opacity:1" />
    </clipPath>
    <clipPath
       id="clipPath6421"
       clipPathUnits="userSpaceOnUse">
      <rect
         ry="0"
         y="142.86183"
         x="104.64092"
         height="13.706499"
         width="8.7753677"
         id="rect6423"
         style="fill:#f2f2f2;stroke:none;stroke-width:0.445628;stroke-linecap:round;stroke-miterlimit:4;stroke-dasharray:none;stroke-opacity:1" />
    </clipPath>
  </defs>
  <sodipodi:namedview
     inkscape:window-maximized="1"
     inkscape:window-y="27"
     inkscape:window-x="0"
     inkscape:window-height="1016"
     inkscape:window-width="1920"
     fit-margin-bottom="1"
     fit-margin-right="1"
     fit-margin-left="1"
     fit-margin-top="1"
     showgrid="false"
     inkscape:document-rotation="0"
     inkscape:current-layer="layer1"
     inkscape:document-units="mm"
     inkscape:cy="31.19181"
     inkscape:cx="50.055447"
     inkscape:zoom="1"
     inkscape:pageshadow="2"
     inkscape:pageopacity="0.0"
     borderopacity="1.0"
     bordercolor="#666666"
     pagecolor="#ffffff"
     id="base"
     inkscape:pagecheckerboard="true" />
  <metadata
     id="metadata5">
    <rdf:RDF>
      <cc:Work
         rdf:about="">
        <dc:format>image/svg+xml</dc:format>
        <dc:type
           rdf:resource="http://purl.org/dc/dcmitype/StillImage" />
        <dc:title></dc:title>
      </cc:Work>
    </rdf:RDF>
  </metadata>
  <g
     transform="translate(-59.208701,-105.20158)"
     id="layer1"
     inkscape:groupmode="layer"
     inkscape:label="Layer 1">
    <path
       transform="matrix(1.6780286,0,0,1.7661019,-115.38176,-146.10697)"
       clip-path="url(#clipPath6421)"
       id="path6306"
       d="m 99.399292,163.12263 -0.89958,-0.89959 v -10.09376 c 0,-11.0762 0.0217,-11.24218 1.578838,-12.04738 0.6485,-0.33535 2.23589,-0.40136 9.65281,-0.40136 h 8.87668 v 9.77957 9.77957 l -8.98669,0.0762 c -9.949078,0.0843 -9.886918,0.073 -9.886918,1.79595 0,1.72293 -0.0622,1.71164 9.886918,1.79595 8.72665,0.074 8.98669,0.0912 8.98669,0.59532 0,0.50581 -0.23524,0.51915 -9.15458,0.51915 h -9.15458 z m 17.823368,-5.05106 c 0.26206,-0.0948 0.3193,-1.96838 0.26458,-8.66069 l -0.0698,-8.53971 -7.9375,-0.0705 c -8.44727,-0.075 -9.09626,0.003 -9.622968,1.15915 -0.28303,0.62118 -0.46163,15.99013 -0.189,16.2636 0.14805,0.1485 17.130568,0.002 17.554708,-0.15186 z M 105.03161,156.443 c -0.10004,-0.10005 -0.18145,-1.02526 -0.18091,-2.05603 7.1e-4,-1.37811 0.13482,-2.09361 0.50664,-2.70338 0.58878,-0.96557 1.98453,-2.07495 2.93195,-2.33037 1.35193,-0.36449 2.64584,-1.03244 2.64584,-1.36586 0,-0.23726 -0.51332,-0.36852 -1.65365,-0.42284 -1.25851,-0.06 -1.65364,-0.1736 -1.65364,-0.47564 0,-0.31156 0.43576,-0.4134 2.027,-0.47373 2.08819,-0.0792 2.81793,-0.43715 2.51269,-1.23261 -0.11396,-0.29697 -0.73711,-0.40836 -2.60929,-0.46639 -1.97601,-0.0612 -2.45957,-0.15426 -2.45957,-0.47311 0,-0.31783 0.47422,-0.41177 2.38125,-0.47169 2.06151,-0.0648 2.43855,-0.14981 2.80796,-0.63336 0.68943,-0.90243 1.0285,-0.35279 1.0285,1.66723 0,2.04277 -0.2011,2.596 -1.40657,3.86959 l -0.8139,0.8599 0.8139,0.8599 c 1.20547,1.27359 1.40657,1.82682 1.40657,3.86959 0,2.02002 -0.33907,2.56966 -1.0285,1.66723 -0.36941,-0.48355 -0.74645,-0.56859 -2.80796,-0.63336 -1.90703,-0.0599 -2.38125,-0.15386 -2.38125,-0.47169 0,-0.31885 0.48356,-0.41187 2.45957,-0.47311 1.87218,-0.058 2.49533,-0.16942 2.60929,-0.46639 0.30524,-0.79546 -0.4245,-1.15344 -2.51269,-1.23261 -1.59124,-0.0603 -2.027,-0.16217 -2.027,-0.47373 0,-0.30204 0.39513,-0.41569 1.65364,-0.47564 1.9138,-0.0912 2.16308,-0.50633 0.71782,-1.19553 -0.89415,-0.42639 -0.98235,-0.42253 -1.9805,0.0867 -1.45368,0.74161 -1.92357,1.58865 -2.0961,3.77844 -0.1351,1.71465 -0.42889,2.3307 -0.89109,1.8685 z m 0.6253,-8.20649 c -0.73101,-0.92934 -0.85111,-1.49181 -0.75518,-3.53705 0.0614,-1.30938 0.17354,-1.71162 0.47715,-1.71162 0.30257,0 0.43235,0.45598 0.54618,1.91908 0.10927,1.40437 0.30767,2.13326 0.73972,2.71765 0.97746,1.32209 0.0119,1.90835 -1.00787,0.61194 z"
       style="fill:#000000;stroke-width:0.264583" />
    <text
       id="text6405"
       y="153.77432"
       x="75.751343"
       style="font-style:normal;font-weight:normal;font-size:10.5833px;line-height:1.25;font-family:sans-serif;letter-spacing:0px;word-spacing:0px;fill:#000000;fill-opacity:1;stroke:none;stroke-width:0.264583"
       xml:space="preserve"><tspan
         style="stroke-width:0.264583"
         y="153.77432"
         x="75.751343"
         id="tspan6403"
         sodipodi:role="line" /></text>
  </g>
</svg>
